<svg xmlns="http://www.w3.org/2000/svg" version="1.1" xmlns:xlink="http://www.w3.org/1999/xlink" xmlns:svgjs="http://svgjs.dev/svgjs" width="1000" height="1000" viewBox="0 0 1000 1000"><rect width="1000" height="1000" fill="#ffffff"></rect><g transform="matrix(0.7,0,0,0.7,149.57576820787847,331.60053255725984)"><svg viewBox="0 0 396 191" data-background-color="#a437db" preserveAspectRatio="xMidYMid meet" height="482" width="1000" xmlns="http://www.w3.org/2000/svg" xmlns:xlink="http://www.w3.org/1999/xlink"><g id="tight-bounds" transform="matrix(1,0,0,1,0.2399939852573425,-0.17012957450097588)"><svg viewBox="0 0 395.52 191.34025914900195" height="191.34025914900195" width="395.52"><g><svg viewBox="0 0 395.52 191.34025914900195" height="191.34025914900195" width="395.52"><g><svg viewBox="0 0 395.52 191.34025914900195" height="191.34025914900195" width="395.52"><g><svg viewBox="0 0 395.52 191.34025914900195" height="191.34025914900195" width="395.52"><g><svg viewBox="0 0 395.52 141.427784489007" height="141.427784489007" width="395.52"><g transform="matrix(1,0,0,1,0,0)"><svg width="395.52" viewBox="2.899996757507324 -33.5 206.9499969482422 71" height="141.427784489007" data-palette-color="#ffffff"><svg></svg><svg></svg><g class="undefined-text-0" data-fill-palette-color="primary" id="text-0"><path xmlns="http://www.w3.org/2000/svg" d="M29.4-8.8l1.4 0.5c-0.567 1.833-1.467 3.417-2.7 4.75-1.233 1.333-2.723 2.34-4.47 3.02-1.753 0.687-3.73 1.03-5.93 1.03v0c-2.967 0-5.557-0.693-7.77-2.08-2.22-1.38-3.947-3.337-5.18-5.87-1.233-2.533-1.85-5.55-1.85-9.05v0c0-3.5 0.617-6.517 1.85-9.05 1.233-2.533 2.96-4.493 5.18-5.88 2.213-1.38 4.787-2.07 7.72-2.07v0c2.3 0 4.3 0.317 6 0.95 1.7 0.633 3.117 1.583 4.25 2.85 1.133 1.267 1.983 2.833 2.55 4.7v0l-1.35 0.65c-0.8-2.633-2.133-4.61-4-5.93-1.867-1.313-4.333-1.97-7.4-1.97v0c-2.667 0-5 0.64-7 1.92-2 1.287-3.557 3.103-4.67 5.45-1.12 2.353-1.68 5.147-1.68 8.38v0c0 3.233 0.56 6.023 1.68 8.37 1.113 2.353 2.67 4.17 4.67 5.45 2 1.287 4.333 1.93 7 1.93v0c2.967 0 5.477-0.71 7.53-2.13 2.047-1.413 3.437-3.387 4.17-5.92zM61.5-33h1.4v33h-1.4zM37.85-33h1.4v33h-1.4zM38.55-17.45h23.7v1.25h-23.7zM73-33h1.4v33h-1.4zM108.1-33h1.35v33h-1.85l-20.15-28.7-1.7-2.75h-0.05l0.1 3.25v28.2h-1.35v-33h1.8l20.2 28.7 1.7 2.8v0l-0.05-3.3zM147.4-33h2v33h-1.35v-27.45l0.1-3.95v0l-12.95 31.4h-1.45l-12.95-31.4h-0.05l0.15 3.95v27.45h-1.35v-33h2l11.95 28.6 0.95 2.75h0.05l0.95-2.7zM156.65 0h-1.45l13.45-33h1.6l13.45 33h-1.45l-11.8-28.85-1-2.7v0l-1 2.65zM178.15-11.2h-17.5v-1.3h17.5zM208.2-33h1.65l-11.6 20.2v12.8h-1.4v-12.8l-11.65-20.2h1.65l6.45 11.3 4.25 7.4 4.2-7.4z" fill="#000000" fill-rule="nonzero" stroke="none" stroke-width="1" stroke-linecap="butt" stroke-linejoin="miter" stroke-miterlimit="10" stroke-dasharray="" stroke-dashoffset="0" font-family="none" font-weight="none" font-size="none" text-anchor="none" style="mix-blend-mode: normal" data-fill-palette-color="primary" opacity="1"></path><path xmlns="http://www.w3.org/2000/svg" d="M16.65 37h-11.6v-33h11.6c3.433 0 6.017 0.723 7.75 2.17 1.733 1.453 2.6 3.563 2.6 6.33v0c0 2.033-0.533 3.723-1.6 5.07-1.067 1.353-2.667 2.263-4.8 2.73v0 0.05c2.267 0.333 4.05 1.19 5.35 2.57 1.3 1.387 1.95 3.213 1.95 5.48v0c0 2.767-0.95 4.89-2.85 6.37-1.9 1.487-4.7 2.23-8.4 2.23zM6.45 21v14.75h10.4c3.167 0 5.56-0.633 7.18-1.9 1.613-1.267 2.42-3.1 2.42-5.5v0c0-2.433-0.807-4.267-2.42-5.5-1.62-1.233-4.013-1.85-7.18-1.85v0zM6.45 5.25v14.45h10.2c5.933 0 8.9-2.383 8.9-7.15v0c0-4.867-2.967-7.3-8.9-7.3v0zM59.55 4h1.4v33h-1.4zM35.9 4h1.4v33h-1.4zM36.6 19.55h23.7v1.25h-23.7zM84 3.5v0c3.1 0 5.783 0.69 8.05 2.07 2.267 1.387 4.01 3.347 5.23 5.88 1.213 2.533 1.82 5.55 1.82 9.05v0c0 3.5-0.607 6.517-1.82 9.05-1.22 2.533-2.963 4.49-5.23 5.87-2.267 1.387-4.95 2.08-8.05 2.08v0c-3.067 0-5.733-0.693-8-2.08-2.267-1.38-4.017-3.337-5.25-5.87-1.233-2.533-1.85-5.55-1.85-9.05v0c0-3.5 0.617-6.517 1.85-9.05 1.233-2.533 2.983-4.493 5.25-5.88 2.267-1.38 4.933-2.07 8-2.07zM84 4.75v0c-2.767 0-5.173 0.64-7.22 1.92-2.053 1.287-3.637 3.103-4.75 5.45-1.12 2.353-1.68 5.147-1.68 8.38v0c0 3.233 0.56 6.023 1.68 8.37 1.113 2.353 2.697 4.17 4.75 5.45 2.047 1.287 4.453 1.93 7.22 1.93v0c2.833 0 5.26-0.643 7.28-1.93 2.013-1.28 3.577-3.097 4.69-5.45 1.12-2.347 1.68-5.137 1.68-8.37v0c0-3.233-0.56-6.027-1.68-8.38-1.113-2.347-2.677-4.163-4.69-5.45-2.02-1.28-4.447-1.92-7.28-1.92zM108.45 4v31.75h20.45v1.25h-21.85v-33zM157.6 37h-22.9v-33h22.1v1.25h-20.7v14.3h16.5v1.25h-16.5v14.95h21.5z" fill="#000000" fill-rule="nonzero" stroke="none" stroke-width="1" stroke-linecap="butt" stroke-linejoin="miter" stroke-miterlimit="10" stroke-dasharray="" stroke-dashoffset="0" font-family="none" font-weight="none" font-size="none" text-anchor="none" style="mix-blend-mode: normal" data-fill-palette-color="primary" opacity="1"></path></g></svg></g></svg></g><g transform="matrix(1,0,0,1,0,156.76808168001932)"><svg viewBox="0 0 232.209792 34.57217746898263" height="34.57217746898263" width="232.209792"><g transform="matrix(1,0,0,1,0,0)"><svg width="232.209792" viewBox="4.949999809265137 -35 302.2200012207031 45" height="34.57217746898263" data-palette-color="#ffffff"><path d="M12.95 0L12.95 0 4.95 0 4.95-35 11.05-35Q17.65-35 21-32.58 24.35-30.15 24.35-25.75L24.35-25.75Q24.35-20.75 20.15-18.4L20.15-18.4Q26.25-16.1 26.25-9.75L26.25-9.75Q26.25-5.25 22.95-2.63 19.65 0 12.95 0ZM6.45-1.5L12.95-1.5Q15.3-1.5 17.25-1.88 19.2-2.25 20.98-3.13 22.75-4 23.75-5.7 24.75-7.4 24.75-9.75L24.75-9.75Q24.75-15.1 19.6-17L19.6-17 16.6-18.1 19.4-19.7Q22.85-21.6 22.85-25.75L22.85-25.75Q22.85-33.5 11.05-33.5L11.05-33.5 6.45-33.5 6.45-1.5ZM52-3.95L53.1-2.95Q50.35 0.5 44.1 0.5 37.85 0.5 35.15-3.05 32.45-6.6 32.45-14.5 32.45-22.4 35.15-25.95 37.85-29.5 44.1-29.5L44.1-29.5Q51.35-29.5 53.95-24.75L53.95-24.75 41.7-14.5 39.35-14.5 52-25.05Q49.8-28 44.1-28L44.1-28Q41.6-28 39.9-27.48 38.2-26.95 36.77-25.53 35.35-24.1 34.65-21.38 33.95-18.65 33.95-14.5 33.95-10.35 34.65-7.63 35.35-4.9 36.77-3.48 38.2-2.05 39.9-1.53 41.6-1 44.1-1L44.1-1Q49.8-1 52-3.95L52-3.95ZM91.24-18.4L88.44-16.8 87.69-18.1 90.49-19.7Q93.94-21.6 93.94-25.75L93.94-25.75Q93.94-33.5 82.14-33.5L82.14-33.5 77.54-33.5 77.54 0 76.04 0 76.04-35 82.14-35Q88.74-35 92.09-32.58 95.44-30.15 95.44-25.75L95.44-25.75Q95.44-20.75 91.24-18.4L91.24-18.4ZM114.34-14.55L114.34-14.55 121.14 0 119.49 0 112.49-15Q112.59-15.05 113.37-15.43 114.14-15.8 114.44-15.98 114.74-16.15 115.44-16.6 116.14-17.05 116.49-17.48 116.84-17.9 117.27-18.48 117.69-19.05 117.89-19.78 118.09-20.5 118.09-21.35L118.09-21.35Q118.09-24.5 115.09-26 112.09-27.5 107.64-27.5L107.64-27.5 103.64-27.5 103.64 0 102.14 0 102.14-29 107.64-29Q113.54-29 116.56-26.95 119.59-24.9 119.59-21.35L119.59-21.35Q119.59-19.05 118.04-17.28 116.49-15.5 114.34-14.55ZM146.24-3.95L147.34-2.95Q144.59 0.5 138.34 0.5 132.09 0.5 129.39-3.05 126.69-6.6 126.69-14.5 126.69-22.4 129.39-25.95 132.09-29.5 138.34-29.5L138.34-29.5Q145.59-29.5 148.19-24.75L148.19-24.75 135.94-14.5 133.59-14.5 146.24-25.05Q144.04-28 138.34-28L138.34-28Q135.84-28 134.14-27.48 132.44-26.95 131.01-25.53 129.59-24.1 128.89-21.38 128.19-18.65 128.19-14.5 128.19-10.35 128.89-7.63 129.59-4.9 131.01-3.48 132.44-2.05 134.14-1.53 135.84-1 138.34-1L138.34-1Q144.04-1 146.24-3.95L146.24-3.95ZM170.54-12.4L167.74-10.8 166.99-12.1 169.79-13.7Q173.24-15.6 173.24-19.75L173.24-19.75Q173.24-27.5 161.44-27.5L161.44-27.5 156.84-27.5 156.84 10 155.34 10 155.34-29 161.44-29Q168.03-29 171.39-26.58 174.74-24.15 174.74-19.75L174.74-19.75Q174.74-14.75 170.54-12.4L170.54-12.4ZM184.43 0L184.43-1.5 200.73-1.5 190.48-25.65 179.58 0 177.98 0 190.48-29.5 202.98 0 184.43 0ZM220.88-14.55L220.88-14.55 227.68 0 226.03 0 219.03-15Q219.13-15.05 219.91-15.43 220.68-15.8 220.98-15.98 221.28-16.15 221.98-16.6 222.68-17.05 223.03-17.48 223.38-17.9 223.81-18.48 224.23-19.05 224.43-19.78 224.63-20.5 224.63-21.35L224.63-21.35Q224.63-24.5 221.63-26 218.63-27.5 214.18-27.5L214.18-27.5 210.18-27.5 210.18 0 208.68 0 208.68-29 214.18-29Q220.08-29 223.11-26.95 226.13-24.9 226.13-21.35L226.13-21.35Q226.13-19.05 224.58-17.28 223.03-15.5 220.88-14.55ZM252.78-3.95L253.88-2.95Q251.13 0.5 244.88 0.5 238.63 0.5 235.93-3.05 233.23-6.6 233.23-14.5 233.23-22.4 235.93-25.95 238.63-29.5 244.88-29.5L244.88-29.5Q252.13-29.5 254.73-24.75L254.73-24.75 242.48-14.5 240.13-14.5 252.78-25.05Q250.58-28 244.88-28L244.88-28Q242.38-28 240.68-27.48 238.98-26.95 237.55-25.53 236.13-24.1 235.43-21.38 234.73-18.65 234.73-14.5 234.73-10.35 235.43-7.63 236.13-4.9 237.55-3.48 238.98-2.05 240.68-1.53 242.38-1 244.88-1L244.88-1Q250.58-1 252.78-3.95L252.78-3.95ZM265.68 0L265.68 0 261.88 0 261.88-29 265.68-29Q273.08-29 277.48-25.1 281.88-21.2 281.88-14.5 281.88-7.8 277.48-3.9 273.08 0 265.68 0ZM263.38-1.5L265.68-1.5Q272.43-1.5 276.4-4.95 280.38-8.4 280.38-14.5 280.38-20.6 276.4-24.05 272.43-27.5 265.68-27.5L265.68-27.5 263.38-27.5 263.38-1.5ZM303.87 0L303.87-2.9 307.17-2.9 307.17 0 303.87 0ZM306.27-35L306.27-6.75 304.77-6.75 304.77-35 306.27-35Z" opacity="1" transform="matrix(1,0,0,1,0,0)" fill="#000000" class="undefined-text-1" data-fill-palette-color="secondary" id="text-1"></path></svg></g></svg></g></svg></g></svg></g></svg></g><defs></defs></svg><rect width="395.52" height="191.34025914900195" fill="none" stroke="none" visibility="hidden"></rect></g></svg></g></svg>