<svg xmlns="http://www.w3.org/2000/svg" version="1.1" xmlns:xlink="http://www.w3.org/1999/xlink" xmlns:svgjs="http://svgjs.dev/svgjs" width="1000" height="623" viewBox="0 0 1000 623"><g transform="matrix(1,0,0,1,-0.606047921084496,0.2522267206477409)"><svg viewBox="0 0 396 247" data-background-color="#ffffff" preserveAspectRatio="xMidYMid meet" height="623" width="1000" xmlns="http://www.w3.org/2000/svg" xmlns:xlink="http://www.w3.org/1999/xlink"><g id="tight-bounds" transform="matrix(1,0,0,1,0.2399950203540584,-0.09999999999999432)"><svg viewBox="0 0 395.52 247.2" height="247.2" width="395.52"><g><svg></svg></g><g><svg viewBox="0 0 395.52 247.2" height="247.2" width="395.52"><g><g><path xmlns="http://www.w3.org/2000/svg" d="M13.117 73.689c8.078-16.733 20.542-30.235 37.39-40.506 16.81-10.309 36.755-15.464 59.836-15.464 11.733 0 23.561 1.731 35.486 5.193 11.925 3.462 21.445 6.924 28.562 10.386l10.675 5.482c0.577 0 1.539-0.481 2.885-1.443 1.346-0.962 2.462-1.443 3.346-1.442 0.846 0 1.75 0.385 2.712 1.154 0.962 0.769 1.5 2.924 1.616 6.462 0.077 3.577 0.462 8.482 1.154 14.714 0.654 6.27 1.269 11.425 1.847 15.464 0.577 4.039 0.866 6.443 0.865 7.212 0 3.462-1.154 5.193-3.462 5.193-1.731 0-3.366-1.346-4.905-4.039-18.657-35.005-45.584-52.508-80.781-52.507-24.042 0-43.757 7.693-59.143 23.08-10.009 10.009-16.762 22.012-20.261 36.008l-23.792 0c1.656-5.15 3.646-10.132 5.97-14.947zM49.469 183.897c7.309 10.001 17.31 17.887 30.004 23.658 12.694 5.77 27.504 8.655 44.43 8.655 27.696 0 50.969-14.425 69.818-43.276 0.769-1.346 2.212-2.02 4.328-2.019 1.731 0 2.597 1.192 2.596 3.577 0 2.423-0.327 5.405-0.981 8.944-0.692 3.577-1.519 7.52-2.481 11.828-0.962 4.347-1.539 7.001-1.731 7.963-0.385 2.116-1.923 3.847-4.616 5.193-10.386 5.001-18.464 8.751-24.234 11.252-15.387 6.539-31.774 9.809-49.162 9.809-17.426 0-32.87-2.02-46.333-6.058-13.464-4.039-24.465-9.328-33.005-15.868-8.578-6.539-15.752-14.233-21.523-23.081-5.306-7.959-9.257-16.596-11.852-25.91h31.133c3.41 9.084 7.946 17.528 13.609 25.333zM236.708 215.633l6.636-0.289c4.039 0 7.405-3.366 10.097-10.097 1.731-4.424 2.789-11.444 3.174-21.061 0.178-4.462 0.316-13.003 0.411-25.622l22.391 0c-0.007 2.012-0.011 4.109-0.01 6.292v19.618l-0.289 12.695c0 11.54 9.424 17.31 28.274 17.31h6.635c10.386 0 19.387-0.635 27.004-1.904 7.578-1.231 14.31-5.789 20.196-13.675 5.847-7.886 8.771-16.926 8.77-27.12 0-4.772-0.379-9.178-1.138-13.216l25.518 0c0.095 1.435 0.143 2.898 0.143 4.388 0 8.771-2.404 17.868-7.213 27.293-4.808 9.424-10.963 16.733-18.464 21.926-7.501 5.193-14.906 8.79-22.215 10.79-7.309 2.039-15.483 3.058-24.523 3.058-9.04 0-19.907-0.519-32.601-1.558-12.694-1.077-19.714-1.616-21.06-1.615l-24.812 1.154h-4.039c-4.039 0-6.059-1.404-6.058-4.213 0-2.77 1.058-4.154 3.173-4.154zM257.192 49.454c0-3.077-0.962-6.539-2.885-10.386-3.847-8.078-11.348-12.117-22.503-12.117-3.27 0-4.905-1.154-4.905-3.462 0-2.885 0.866-4.328 2.597-4.328l11.54 0.289 42.121-0.289 31.736-0.865c17.503 0 32.12 4.174 43.852 12.521 11.733 8.386 17.599 20.272 17.599 35.659 0 8.102-2.076 15.489-6.229 22.16l-18.362 0c1.585-4.26 2.377-9.05 2.376-14.37 0-10.386-5.039-20.638-15.117-30.755-10.117-10.078-24.504-15.118-43.16-15.117-5.962 0-9.944 1.769-11.945 5.308-2.039 3.577-3.058 11.713-3.058 24.407v8.367c0 8.81 0.089 16.197 0.267 22.16l-23.924 0z" fill="#30017e" fill-rule="nonzero" stroke="none" stroke-width="1" stroke-linecap="butt" stroke-linejoin="miter" stroke-miterlimit="10" stroke-dasharray="" stroke-dashoffset="0" font-family="none" font-weight="none" font-size="none" text-anchor="none" style="mix-blend-mode: normal" data-fill-palette-color="tertiary"></path></g></g><g transform="matrix(1,0,0,1,0,93.59974499843254)"><svg viewBox="0 0 395.52 60.000510003134906" height="60.000510003134906" width="395.52"><g><svg viewBox="0 0 395.52 60.000510003134906" height="60.000510003134906" width="395.52"><g><svg viewBox="0 0 395.52 60.000510003134906" height="60.000510003134906" width="395.52"><g><svg viewBox="0 0 395.52 60.000510003134906" height="60.000510003134906" width="395.52"><g><svg viewBox="0 0 395.52 60.000510003134906" height="60.000510003134906" width="395.52"><g><svg viewBox="0 0 395.52 34.01536007397989" height="34.01536007397989" width="395.52"><g transform="matrix(1,0,0,1,0,0)"><svg width="395.52" viewBox="2.200000047683716 -36.20000076293945 432.5199890136719 37.20000076293945" height="34.01536007397989" data-palette-color="#30017e"><path d="M2.2-16.25Q2.2-21.65 4.3-26 6.4-30.35 10.78-33.02 15.15-35.7 21.15-35.7L21.15-35.7Q24.2-35.7 27.3-34.8 30.4-33.9 32.25-33L32.25-33 34.1-32.05Q34.25-32.05 34.6-32.3 34.95-32.55 35.18-32.55 35.4-32.55 35.65-32.35 35.9-32.15 35.93-31.23 35.95-30.3 36.13-28.68 36.3-27.05 36.45-26 36.6-24.95 36.6-24.75L36.6-24.75Q36.6-23.85 36-23.85L36-23.85Q35.55-23.85 35.15-24.55L35.15-24.55Q30.3-33.65 21.15-33.65L21.15-33.65Q14.9-33.65 10.9-29.65 6.9-25.65 6.9-19.2L6.9-19.2Q6.9-12 10.6-6.9L10.6-6.9Q12.5-4.3 15.8-2.8 19.1-1.3 23.5-1.3L23.5-1.3Q30.7-1.3 35.6-8.8L35.6-8.8Q35.8-9.15 36.35-9.15L36.35-9.15Q36.8-9.15 36.8-8.53 36.8-7.9 36.63-6.98 36.45-6.05 36.2-4.93 35.95-3.8 35.9-3.55L35.9-3.55Q35.8-3 35.1-2.65L35.1-2.65Q32.4-1.35 30.9-0.7L30.9-0.7Q26.9 1 22.38 1 17.85 1 14.35-0.05 10.85-1.1 8.63-2.8 6.4-4.5 4.9-6.8L4.9-6.8Q2.2-10.85 2.2-16.25ZM46.4-17.25L46.4-20.1 46.45-25.5Q46.45-29.3 46.15-31.45L46.15-31.45Q46-32.7 44.82-33.4 43.65-34.1 42.77-34.1 41.9-34.1 41.62-34.43 41.35-34.75 41.35-34.95L41.35-34.95Q41.35-35.5 42.75-35.5L42.75-35.5 48.4-35.3 52.8-35.4Q53.9-35.4 53.9-34.7L53.9-34.7Q53.9-33.85 52.15-33.85L52.15-33.85Q51.15-33.85 50.7-31.8 50.25-29.75 50.25-27.6L50.25-27.6 50.25-25.75 50.15-21.15Q50.15-19.9 50.45-19.55 50.75-19.2 51.85-19.2L51.85-19.2 60.05-19.25Q60.05-19.25 69.5-19.15L69.5-19.15Q70.05-19.15 70.05-26.1L70.05-26.1 70.05-28.8Q70.05-32.55 68.55-33.4L68.55-33.4Q67.95-33.75 67.32-33.85 66.7-33.95 66.27-34.13 65.85-34.3 65.85-34.8 65.85-35.3 67.8-35.3L67.8-35.3 72.65-35.2 76.55-35.3Q77.7-35.3 77.7-34.65 77.7-34 77-34L77-34Q75.6-34 74.87-33.15 74.15-32.3 74.15-30.9L74.15-30.9 73.9-11.25 73.9-9.4 74.1-4.8Q74.1-1.55 78.3-1.1L78.3-1.1Q78.9-1.1 78.9-0.55L78.9-0.55Q78.9-0.2 78.4-0.1 77.9 0 76.45 0L76.45 0 72.6-0.25 67.9 0 67.05 0Q66.35 0 66.22-0.2 66.1-0.4 66.1-0.68 66.1-0.95 66.6-1.2 67.1-1.45 67.7-1.6 68.3-1.75 68.85-2.2L68.85-2.2Q69.9-2.95 69.9-6.9L69.9-6.9 70.05-15.75Q70.05-16.5 69.45-16.8 68.85-17.1 67.5-17.1 66.15-17.1 63.45-17L63.45-17 60.75-16.95 51.55-17.1Q50.8-17.1 50.55-16.8 50.3-16.5 50.3-15.25L50.3-15.25 50.1-9.1 50.1-6.95Q50.1-4.8 50.5-3.75 50.9-2.7 52.45-1.7L52.45-1.7Q52.85-1.45 53.9-1.45L53.9-1.45Q55.55-1.45 55.55-0.9L55.55-0.9Q55.55 0 53.95 0L53.95 0 49.8-0.2 44.4 0.05Q42.05 0.05 42.05-0.7L42.05-0.7Q42.05-1.4 43.6-1.6L43.6-1.6Q44.2-1.65 44.85-2.23 45.5-2.8 45.7-3.78 45.9-4.75 46.15-9.05 46.4-13.35 46.4-17.25L46.4-17.25ZM85.85-17.25L85.85-20.1 85.9-25.5 85.9-27.8Q85.9-30 85.72-31.33 85.55-32.65 84.37-33.3 83.2-33.95 82.05-34 80.9-34.05 80.9-34.77 80.9-35.5 82.3-35.5L82.3-35.5 87.95-35.3 92.35-35.4Q93.7-35.4 93.7-34.7L93.7-34.7Q93.7-34.3 91.4-33.35L91.4-33.35Q89.8-32.7 89.8-27.6L89.8-27.6 89.65-9.1Q89.65-4.9 90.82-3.2 92-1.5 93.3-1.5L93.3-1.5 94.3-1.45Q94.65-1.45 95-1.28 95.35-1.1 95.35-0.7L95.35-0.7Q95.35 0 94.1 0L94.1 0 89.35-0.2 83.85 0.05Q81.6 0.05 81.6-0.7L81.6-0.7Q81.6-1.4 83.15-1.6L83.15-1.6Q83.75-1.65 84.4-2.23 85.05-2.8 85.22-3.53 85.4-4.25 85.62-9.58 85.85-14.9 85.85-17.25L85.85-17.25ZM108.84 0.2L103.49 0.1 99.24 0.2Q98.14 0.2 98.14-0.6L98.14-0.6Q98.14-1.05 98.79-1.18 99.44-1.3 100.39-1.95 101.34-2.6 101.74-4.08 102.14-5.55 102.59-13.7 103.04-21.85 103.04-25.55 103.04-29.25 101.84-31.38 100.64-33.5 97.94-33.8L97.94-33.8Q97.29-33.85 97.29-34.55L97.29-34.55Q97.29-34.85 97.64-35.13 97.99-35.4 98.54-35.4L98.54-35.4 100.44-35.35 102.89-35.45Q103.34-35.45 103.94-35.18 104.54-34.9 104.64-34.68 104.74-34.45 105.19-33.93 105.64-33.4 106.39-32.55 107.14-31.7 107.74-30.9L107.74-30.9Q114.54-22.05 125.94-9.55L125.94-9.55Q126.24-9.2 126.67-8.75 127.09-8.3 127.27-8.08 127.44-7.85 127.64-7.65L127.64-7.65Q127.99-7.3 128.19-7.3L128.19-7.3Q128.69-7.3 128.69-10.4L128.69-10.4 128.69-16.25 128.59-26.5 128.59-26.85Q128.59-31.45 126.99-32.7L126.99-32.7Q126.39-33.15 125.99-33.27 125.59-33.4 124.84-33.55L124.84-33.55Q122.79-33.95 122.79-34.68 122.79-35.4 123.74-35.4L123.74-35.4 128.49-35.35Q128.49-35.35 132.99-35.45L132.99-35.45Q133.84-35.45 134.17-35.27 134.49-35.1 134.49-34.75 134.49-34.4 134.19-34.2L134.19-34.2Q133.79-33.95 132.74-33.6L132.74-33.6Q131.09-32.7 131.09-27.95L131.09-27.95 131.09-26.05 130.54-1.3 130.54-0.3Q130.54 0.85 129.84 0.85L129.84 0.85Q129.39 0.85 129.04 0.5L129.04 0.5Q112.44-18.75 109.22-22.38 105.99-26 105.64-26L105.64-26Q105.14-26 105.14-21.93 105.14-17.85 104.94-12.38 104.74-6.9 104.74-6.4L104.74-6.4Q104.74-4.15 105.52-2.98 106.29-1.8 107.19-1.65 108.09-1.5 108.87-1.33 109.64-1.15 109.64-0.63 109.64-0.1 109.47 0.05 109.29 0.2 108.84 0.2L108.84 0.2ZM143.44-0.05L139.34 0.1Q138.29 0.1 138.29-0.7L138.29-0.7Q138.29-1.35 139.79-1.4L139.79-1.4Q140.34-1.45 141.04-2.23 141.74-3 142.04-4.3 142.34-5.6 142.69-13.2 143.04-20.8 143.04-25.13 143.04-29.45 142.07-31.35 141.09-33.25 137.84-34L137.84-34Q137.19-34.15 137.19-34.75L137.19-34.75Q137.19-35.5 138.09-35.5L138.09-35.5 140.74-35.3 144.49-35.4Q145.44-35.4 145.69-34.7L145.69-34.7Q146.29-33.4 147.84-30.03 149.39-26.65 150.32-24.65 151.24-22.65 152.69-19.55 154.14-16.45 155.04-14.53 155.94-12.6 156.92-10.65 157.89-8.7 158.42-7.78 158.94-6.85 159.09-6.85 159.24-6.85 159.42-7.03 159.59-7.2 159.77-7.5 159.94-7.8 160.07-8.1 160.19-8.4 160.42-8.88 160.64-9.35 160.74-9.6L160.74-9.6 167.19-22.9Q169.84-28.3 170.74-30.45L170.74-30.45 171.89-32.95Q172.04-33.35 172.12-33.58 172.19-33.8 172.24-33.93 172.29-34.05 172.34-34.15 172.39-34.25 172.52-34.6 172.64-34.95 172.79-35.1L172.79-35.1Q173.19-35.5 174.24-35.5L174.24-35.5 178.54-35.4Q179.39-35.4 179.39-34.75L179.39-34.75Q179.39-34.25 179.07-34.02 178.74-33.8 177.62-33.65 176.49-33.5 175.99-32.4 175.49-31.3 175.49-26.38 175.49-21.45 175.79-15.98 176.09-10.5 176.09-9.1L176.09-9.1Q176.09-4.1 176.89-2.73 177.69-1.35 180.24-1.35L180.24-1.35Q180.59-1.35 180.87-1.1 181.14-0.85 181.14-0.65L181.14-0.65Q181.14 0.15 180.59 0.15L180.59 0.15 180.04 0.15 174.94-0.05Q174.94-0.05 169.74 0.2L169.74 0.2Q168.84 0.2 168.84-0.5L168.84-0.5Q168.84-1.25 170.19-1.4L170.19-1.4Q170.69-1.45 171.27-2.02 171.84-2.6 172.07-3.68 172.29-4.75 172.29-6.65 172.29-8.55 172.22-10.8 172.14-13.05 172.04-15.18 171.94-17.3 171.84-19.18 171.74-21.05 171.69-22.25L171.69-22.25 171.59-23.45Q171.59-25.6 171.14-25.6L171.14-25.6Q170.99-25.6 170.87-25.45 170.74-25.3 170.64-25.2 170.54-25.1 170.44-24.88 170.34-24.65 170.24-24.5 170.14-24.35 169.99-24.08 169.84-23.8 169.74-23.6L169.74-23.6 169.49-23.05Q169.29-22.7 169.19-22.45L169.19-22.45 162.24-8.4Q161.04-5.95 159.92-3.6 158.79-1.25 158.59-0.93 158.39-0.6 158.02-0.6 157.64-0.6 157.34-1.03 157.04-1.45 156.44-2.9 155.84-4.35 155.39-5.3L155.39-5.3Q146.24-23.9 146.04-24.18 145.84-24.45 145.69-24.45L145.69-24.45Q145.29-24.45 145.29-22.45L145.29-22.45 144.84-9.25 144.84-7Q144.84-2.9 146.49-1.95L146.49-1.95Q147.34-1.45 148.14-1.4L148.14-1.4Q149.39-1.25 149.39-0.73 149.39-0.2 149.24-0.03 149.09 0.15 148.64 0.15L148.64 0.15 143.44-0.05ZM193.04 0.05L188.89 0 184.59 0.2Q183.14 0.2 183.14-0.4L183.14-0.4Q183.14-1.1 183.89-1.35L183.89-1.35Q185.49-1.95 186.69-4.03 187.89-6.1 192.71-16.57 197.54-27.05 201.29-35.05L201.29-35.05Q201.64-35.8 201.91-36 202.19-36.2 202.71-36.2 203.24-36.2 203.39-36 203.54-35.8 203.94-34.65 204.34-33.5 204.56-32.9 204.79-32.3 205.29-30.95 205.79-29.6 206.89-26.9 207.99-24.2 211.91-15.08 215.84-5.95 216.44-4.73 217.04-3.5 218.09-2.63 219.14-1.75 219.91-1.68 220.69-1.6 221.21-1.43 221.74-1.25 221.74-0.65L221.74-0.65Q221.74 0.1 220.39 0.1L220.39 0.1 215.89-0.2 211.24 0Q209.69 0 209.26-0.13 208.84-0.25 208.84-0.65 208.84-1.05 209.24-1.28 209.64-1.5 210.09-1.58 210.54-1.65 210.94-2.02 211.34-2.4 211.34-3.28 211.34-4.15 210.09-7.55 208.84-10.95 207.99-12.55L207.99-12.55Q207.54-13.4 205.94-13.4L205.94-13.4 199.89-13.3 197.24-13.3Q194.99-13.3 194.41-13.05 193.84-12.8 193.46-12 193.09-11.2 192.39-9.78 191.69-8.35 191.44-7.8 191.19-7.25 190.84-6.4L190.84-6.4Q190.19-4.9 190.19-3.9 190.19-2.9 190.76-2.3 191.34-1.7 192.04-1.6L192.04-1.6Q193.89-1.45 193.89-0.65L193.89-0.65Q193.89-0.3 193.74-0.13 193.59 0.05 193.04 0.05L193.04 0.05ZM200.94-28.5Q200.49-28.5 198.09-22.98 195.69-17.45 195.69-16.85 195.69-16.25 196.14-16.1 196.59-15.95 198.24-15.95L198.24-15.95 199.79-15.95 204.54-16Q206.49-16 206.49-16.73 206.49-17.45 204.04-22.98 201.59-28.5 200.94-28.5L200.94-28.5ZM231.74-4.45L231.74-4.45 231.84-14.6Q231.84-16.7 230.54-18.7L230.54-18.7Q229.34-20.6 227.39-23.45 225.44-26.3 223.94-28.58 222.44-30.85 221.19-32.08 219.94-33.3 219.26-33.52 218.59-33.75 217.51-33.75 216.44-33.75 216.44-34.35 216.44-34.95 217.01-35.1 217.59-35.25 219.54-35.25L219.54-35.25 222.44-35.15 226.69-35.2Q229.19-35.2 229.19-34.63 229.19-34.05 228.14-33.68 227.09-33.3 227.09-32.83 227.09-32.35 227.41-31.55 227.74-30.75 228.06-30.25 228.39-29.75 229.04-28.8 229.69-27.85 230.59-26.4 231.49-24.95 233.31-22.5 235.14-20.05 235.41-20.05 235.69-20.05 236.14-20.63 236.59-21.2 237.39-22.55 238.19-23.9 238.54-24.43 238.89-24.95 239.46-25.8 240.04-26.65 240.26-27 240.49-27.35 240.94-28.08 241.39-28.8 241.59-29.18 241.79-29.55 242.04-30.1L242.04-30.1Q242.54-31 242.54-31.6L242.54-31.6Q242.54-33.4 240.24-33.7L240.24-33.7Q239.14-33.85 238.99-34.13 238.84-34.4 238.84-34.65L238.84-34.65Q238.84-35.25 240.24-35.25L240.24-35.25 242.29-35.2 247.59-35.15Q250.04-35.15 250.04-34.4L250.04-34.4Q250.04-34.2 249.74-34.05 249.44-33.9 248.89-33.65 248.34-33.4 247.89-33.05L247.89-33.05Q245.84-31.45 241.86-25.45 237.89-19.45 237.21-18.6 236.54-17.75 236.34-16.55 236.14-15.35 236.14-12.45L236.14-12.45 236.19-6.65 236.19-5.45Q236.19-3.8 236.76-2.85 237.34-1.9 237.84-1.73 238.34-1.55 238.84-1.55L238.84-1.55 239.84-1.5Q240.19-1.5 240.39-1.28 240.59-1.05 240.59-0.68 240.59-0.3 240.34-0.15 240.09 0 239.39 0L239.39 0 234.39-0.05 228.89 0.15Q227.49 0.15 227.49-0.35 227.49-0.85 227.76-1.03 228.04-1.2 228.69-1.25 229.34-1.3 229.64-1.4L229.64-1.4Q231.74-2.05 231.74-4.45ZM264.38-1.4L264.38-1.4 265.53-1.45Q266.58-1.45 267.28-3.2L267.28-3.2Q267.73-4.35 267.83-6.85 267.93-9.35 267.93-21.7L267.93-21.7 267.93-30.2Q267.93-31 267.43-32L267.43-32Q266.43-34.1 263.53-34.1L263.53-34.1Q262.68-34.1 262.68-34.7L262.68-34.7Q262.68-35.45 263.13-35.45L263.13-35.45 265.13-35.4 272.43-35.45 277.93-35.6Q282.48-35.6 285.53-33.43 288.58-31.25 288.58-27.25L288.58-27.25Q288.58-22.95 284.08-20.2L284.08-20.2Q283.58-19.85 283.58-19.8L283.58-19.8Q283.58-19.65 284.43-19.43 285.28-19.2 286.48-18.68 287.68-18.15 288.86-17.25 290.03-16.35 290.88-14.58 291.73-12.8 291.73-10.53 291.73-8.25 290.48-5.8 289.23-3.35 287.28-2 285.33-0.65 283.43-0.13 281.53 0.4 279.18 0.4 276.83 0.4 273.53 0.13 270.23-0.15 269.88-0.15L269.88-0.15 265.58 0.05 264.88 0.05Q263.83 0.05 263.83-0.68 263.83-1.4 264.38-1.4ZM271.78-10.2L271.78-6.8 271.73-4.6Q271.73-1.6 276.63-1.6L276.63-1.6 277.78-1.6Q280.48-1.6 282.45-1.93 284.43-2.25 285.95-4.3 287.48-6.35 287.48-9 287.48-11.65 286.58-13.43 285.68-15.2 284.53-16.1 283.38-17 281.78-17.5L281.78-17.5Q279.58-18.2 277.68-18.2L277.68-18.2 273.78-18.25 273.03-18.3Q272.58-18.3 272.38-18.18 272.18-18.05 271.98-17.2L271.98-17.2Q271.78-16.15 271.78-10.2L271.78-10.2ZM272.03-28.7L272.03-27.25Q272.03-20.95 272.38-20.25L272.38-20.25Q272.58-19.9 275.23-19.9L275.23-19.9 278.43-19.9Q281.58-19.9 283.16-21.55 284.73-23.2 284.73-25.9 284.73-28.6 282.11-31.23 279.48-33.85 274.63-33.85L274.63-33.85Q273.08-33.85 272.56-32.93 272.03-32 272.03-28.7L272.03-28.7ZM299.23-17.25L299.23-20.1 299.28-25.5Q299.28-29.3 298.98-31.45L298.98-31.45Q298.83-32.7 297.65-33.4 296.48-34.1 295.6-34.1 294.73-34.1 294.45-34.43 294.18-34.75 294.18-34.95L294.18-34.95Q294.18-35.5 295.58-35.5L295.58-35.5 301.23-35.3 305.63-35.4Q306.73-35.4 306.73-34.7L306.73-34.7Q306.73-33.85 304.98-33.85L304.98-33.85Q303.98-33.85 303.53-31.8 303.08-29.75 303.08-27.6L303.08-27.6 303.08-25.75 302.98-21.15Q302.98-19.9 303.28-19.55 303.58-19.2 304.68-19.2L304.68-19.2 312.88-19.25Q312.88-19.25 322.33-19.15L322.33-19.15Q322.88-19.15 322.88-26.1L322.88-26.1 322.88-28.8Q322.88-32.55 321.38-33.4L321.38-33.4Q320.78-33.75 320.15-33.85 319.53-33.95 319.1-34.13 318.68-34.3 318.68-34.8 318.68-35.3 320.63-35.3L320.63-35.3 325.48-35.2 329.38-35.3Q330.53-35.3 330.53-34.65 330.53-34 329.83-34L329.83-34Q328.43-34 327.7-33.15 326.98-32.3 326.98-30.9L326.98-30.9 326.73-11.25 326.73-9.4 326.93-4.8Q326.93-1.55 331.13-1.1L331.13-1.1Q331.73-1.1 331.73-0.55L331.73-0.55Q331.73-0.2 331.23-0.1 330.73 0 329.28 0L329.28 0 325.43-0.25 320.73 0 319.88 0Q319.18 0 319.05-0.2 318.93-0.4 318.93-0.68 318.93-0.95 319.43-1.2 319.93-1.45 320.53-1.6 321.13-1.75 321.68-2.2L321.68-2.2Q322.73-2.95 322.73-6.9L322.73-6.9 322.88-15.75Q322.88-16.5 322.28-16.8 321.68-17.1 320.33-17.1 318.98-17.1 316.28-17L316.28-17 313.58-16.95 304.38-17.1Q303.63-17.1 303.38-16.8 303.13-16.5 303.13-15.25L303.13-15.25 302.93-9.1 302.93-6.95Q302.93-4.8 303.33-3.75 303.73-2.7 305.28-1.7L305.28-1.7Q305.68-1.45 306.73-1.45L306.73-1.45Q308.38-1.45 308.38-0.9L308.38-0.9Q308.38 0 306.78 0L306.78 0 302.63-0.2 297.23 0.05Q294.88 0.05 294.88-0.7L294.88-0.7Q294.88-1.4 296.43-1.6L296.43-1.6Q297.03-1.65 297.68-2.23 298.33-2.8 298.53-3.78 298.73-4.75 298.98-9.05 299.23-13.35 299.23-17.25L299.23-17.25ZM334.93-16.95L334.93-16.95Q334.93-25.35 339.98-30.73 345.03-36.1 354.28-36.1L354.28-36.1Q358.58-36.1 362.03-34.85 365.48-33.6 367.48-31.78 369.48-29.95 370.83-27.6L370.83-27.6Q373.18-23.5 373.18-19.6L373.18-19.6Q373.18-12.8 370.53-8.1L370.53-8.1Q365.48 0.8 353.58 0.8L353.58 0.8Q347.63 0.8 343.3-1.8 338.98-4.4 336.95-8.35 334.93-12.3 334.93-16.95ZM339.33-19.5L339.33-19.5Q339.33-15.05 341.68-10.4L341.68-10.4Q342.93-7.9 344.7-5.93 346.48-3.95 349.2-2.68 351.93-1.4 355.18-1.4L355.18-1.4Q358.88-1.4 362.48-3.55L362.48-3.55Q366.48-5.9 368.13-10.1L368.13-10.1Q369.08-12.35 369.08-15L369.08-15Q369.08-24.05 364.33-29.08 359.58-34.1 352.58-34.1L352.58-34.1Q347.08-34.1 343.2-30.4 339.33-26.7 339.33-19.5ZM381.12-11.55L381.12-17.75 381.27-26.4Q381.27-27.75 381.17-30.95L381.17-30.95Q381.12-32.4 379.92-33.2 378.72-34 377.67-34.02 376.62-34.05 376.5-34.23 376.37-34.4 376.37-34.75L376.37-34.75Q376.37-35.65 377.72-35.65L377.72-35.65 379.07-35.55 383.42-35.35 388.67-35.55Q389.52-35.55 389.52-35.05L389.52-35.05Q389.52-34.35 388.92-34.13 388.32-33.9 387.6-33.83 386.87-33.75 386.2-32.73 385.52-31.7 385.42-29.7 385.32-27.7 385.17-18.75 385.02-9.8 385.02-8.75L385.02-8.75 385.02-6.75Q385.02-3.15 386.25-2.78 387.47-2.4 388.37-2.4L388.37-2.4Q395.87-2.4 399.17-3.6L399.17-3.6Q402.17-4.7 402.77-5.9L402.77-5.9Q403.42-7.15 403.92-7.15L403.92-7.15Q404.52-7.15 404.52-6.3L404.52-6.3Q404.52-4.15 402.37-1.95 400.22 0.25 398.62 0.25L398.62 0.25Q395.02 0.25 390.5 0 385.97-0.25 384.87-0.25L384.87-0.25 378.62 0.15Q377.17 0.15 377.17-0.45L377.17-0.45Q377.17-0.8 377.45-1.03 377.72-1.25 378.22-1.25 378.72-1.25 379.52-1.85 380.32-2.45 380.72-4.33 381.12-6.2 381.12-11.55L381.12-11.55ZM411.32-11.55L411.32-17.75 411.47-26.4Q411.47-27.75 411.37-30.95L411.37-30.95Q411.32-32.4 410.12-33.2 408.92-34 407.32-34.05L407.32-34.05Q406.52-34.05 406.52-34.95L406.52-34.95Q406.52-35.65 407.92-35.65L407.92-35.65 409.27-35.55 421.47-35.3 431.47-35.5Q432.42-35.5 432.42-34.35L432.42-34.35Q432.42-34.05 432.12-32.38 431.82-30.7 431.82-29.75L431.82-29.75Q431.82-28.15 431.04-28.15 430.27-28.15 430.27-29.35 430.27-30.55 429.42-31.65 428.57-32.75 427.32-32.8L427.32-32.8Q422.82-33.15 420.42-33.15L420.42-33.15 419.12-33.15Q416.52-33.15 416.12-32.8L416.12-32.8Q415.37-32.15 415.37-21.75L415.37-21.75Q415.37-19.25 416.32-19.2L416.32-19.2 421.22-19.2Q424.22-19.2 425.22-19.4L425.22-19.4Q427.82-19.9 428.17-22L428.17-22Q428.32-22.85 428.82-22.85 429.32-22.85 429.42-22.7 429.52-22.55 429.52-22.05L429.52-22.05 429.12-16.8 429.27-13.75Q429.27-12.5 428.92-12.5L428.92-12.5Q428.17-12.5 427.82-13.7L427.82-13.7Q427.12-15.8 426.57-16.15L426.57-16.15Q425.52-16.85 422.92-16.85L422.92-16.85 419.32-16.85 417.72-16.9 417.37-16.9Q415.32-16.9 415.32-15.95L415.32-15.95 415.22-8.75 415.22-6.75Q415.22-3.15 416.44-2.78 417.67-2.4 418.57-2.4L418.57-2.4Q426.07-2.4 429.42-3.6L429.42-3.6Q432.37-4.7 433.02-5.9L433.02-5.9Q433.62-7.15 434.12-7.15L434.12-7.15Q434.72-7.15 434.72-6.3L434.72-6.3Q434.72-4.15 432.57-1.95 430.42 0.25 428.82 0.25L428.82 0.25Q425.22 0.25 420.69 0 416.17-0.25 415.07-0.25L415.07-0.25 408.27 0.2Q407.22 0.2 407.22-0.3L407.22-0.3 407.22-0.9Q407.22-1.2 407.72-1.3L407.72-1.3Q408.27-1.35 409.42-1.9 410.57-2.45 410.94-4.2 411.32-5.95 411.32-11.55L411.32-11.55Z" opacity="1" transform="matrix(1,0,0,1,0,0)" fill="#30017e" class="undefined-text-0" data-fill-palette-color="primary" id="text-0"></path></svg></g></svg></g><g transform="matrix(1,0,0,1,0,38.97901747741533)"><svg viewBox="0 0 395.52 21.021492525719573" height="21.021492525719573" width="395.52"><g transform="matrix(1,0,0,1,0,0)"><svg width="395.52" viewBox="1.100000023841858 -35.04999923706055 875.8400268554688 46.54999923706055" height="21.021492525719573" data-palette-color="#96a2fb"><path d="M13.8 0L1.1 0 1.1-0.5 2-0.85Q3-1.25 3.38-1.85 3.75-2.45 3.75-3.45L3.75-3.45 3.75-29.55Q3.75-30.6 3.38-31.2 3-31.8 2-32.15L2-32.15 1.1-32.5 1.1-33 15.45-33Q21.55-33 24.25-30.78 26.95-28.55 26.95-25.15L26.95-25.15Q26.95-22.6 24.98-20.53 23-18.45 18.2-17.6L18.2-17.6Q23.7-17 26.25-14.73 28.8-12.45 28.8-9.2L28.8-9.2Q28.8-7.6 28.1-5.98 27.4-4.35 25.73-3 24.05-1.65 21.15-0.83 18.25 0 13.8 0L13.8 0ZM11.15-32L11.15-17.65 13.3-17.65Q16.65-17.65 18.13-19.2 19.6-20.75 19.6-24.6L19.6-24.6Q19.6-28.6 18.25-30.3 16.9-32 13.85-32L13.85-32 11.15-32ZM11.15-16.65L11.15-1 13.65-1Q17.4-1 19.23-3 21.05-5 21.05-9.25L21.05-9.25Q21.05-13.25 19.3-14.95 17.55-16.65 13.55-16.65L13.55-16.65 11.15-16.65ZM91.84-24.8L91.84-24.8Q95.09-24.8 97.39-23.48 99.69-22.15 100.92-19.88 102.14-17.6 102.14-14.7L102.14-14.7Q102.14-14.15 102.09-13.58 102.04-13 101.89-12.55L101.89-12.55 86.99-12.55Q87.04-7.15 88.92-4.78 90.79-2.4 94.49-2.4L94.49-2.4Q96.99-2.4 98.54-3.2 100.09-4 101.44-5.55L101.44-5.55 101.94-5.1Q100.39-2.35 97.82-0.8 95.24 0.75 91.64 0.75L91.64 0.75Q88.09 0.75 85.34-0.78 82.59-2.3 81.04-5.15 79.49-8 79.49-11.95L79.49-11.95Q79.49-16.05 81.29-18.93 83.09-21.8 85.92-23.3 88.74-24.8 91.84-24.8ZM91.69-23.8L91.69-23.8Q90.24-23.8 89.22-22.93 88.19-22.05 87.62-19.83 87.04-17.6 86.99-13.55L86.99-13.55 95.54-13.55Q96.04-19 95.14-21.4 94.24-23.8 91.69-23.8ZM226.02 0L212.42 0 212.42-0.5 213.42-0.85Q214.42-1.15 214.75-1.75 215.07-2.35 215.07-3.35L215.07-3.35 215.07-29.55Q215.07-30.55 214.72-31.15 214.37-31.75 213.37-32.1L213.37-32.1 212.42-32.5 212.42-33 224.57-33Q232.02-33 235.35-30.28 238.67-27.55 238.67-23.1L238.67-23.1Q238.67-20.25 237.3-17.88 235.92-15.5 232.77-14.1 229.62-12.7 224.27-12.7L224.27-12.7 222.57-12.7 222.57-3.5Q222.57-1.55 224.52-0.95L224.52-0.95 226.02-0.5 226.02 0ZM222.57-32L222.57-13.7 224.47-13.7Q226.92-13.7 228.47-14.5 230.02-15.3 230.77-17.3 231.52-19.3 231.52-22.85L231.52-22.85Q231.52-26.45 230.7-28.45 229.87-30.45 228.27-31.23 226.67-32 224.27-32L224.27-32 222.57-32ZM301.91 0L288.96 0 288.96-0.5 289.71-0.7Q290.71-1 291.09-1.6 291.46-2.2 291.46-3.15L291.46-3.15 291.46-18.8Q291.46-19.9 291.09-20.43 290.71-20.95 289.71-21.15L289.71-21.15 288.96-21.35 288.96-21.85 297.56-24.75 298.06-24.25 298.51-19.95 298.51-19.55Q299.21-20.95 300.34-22.13 301.46-23.3 302.84-24.05 304.21-24.8 305.56-24.8L305.56-24.8Q307.46-24.8 308.46-23.75 309.46-22.7 309.46-21.1L309.46-21.1Q309.46-19.4 308.49-18.48 307.51-17.55 306.16-17.55L306.16-17.55Q304.06-17.55 302.46-19.65L302.46-19.65 302.36-19.75Q301.86-20.45 301.21-20.53 300.56-20.6 300.01-19.9L300.01-19.9Q299.51-19.45 299.19-18.82 298.86-18.2 298.56-17.4L298.56-17.4 298.56-3.45Q298.56-1.45 300.31-0.95L300.31-0.95 301.91-0.5 301.91 0ZM371.95-24.8L371.95-24.8Q375.2-24.8 377.5-23.48 379.8-22.15 381.03-19.88 382.25-17.6 382.25-14.7L382.25-14.7Q382.25-14.15 382.2-13.58 382.15-13 382-12.55L382-12.55 367.1-12.55Q367.15-7.15 369.03-4.78 370.9-2.4 374.6-2.4L374.6-2.4Q377.1-2.4 378.65-3.2 380.2-4 381.55-5.55L381.55-5.55 382.05-5.1Q380.5-2.35 377.93-0.8 375.35 0.75 371.75 0.75L371.75 0.75Q368.2 0.75 365.45-0.78 362.7-2.3 361.15-5.15 359.6-8 359.6-11.95L359.6-11.95Q359.6-16.05 361.4-18.93 363.2-21.8 366.03-23.3 368.85-24.8 371.95-24.8ZM371.8-23.8L371.8-23.8Q370.35-23.8 369.33-22.93 368.3-22.05 367.73-19.83 367.15-17.6 367.1-13.55L367.1-13.55 375.65-13.55Q376.15-19 375.25-21.4 374.35-23.8 371.8-23.8ZM445.29 11.5L433.14 11.5 433.14 11 433.74 10.8Q435.59 10.3 435.59 8.4L435.59 8.4 435.59-18.8Q435.59-19.9 435.22-20.45 434.84-21 433.84-21.2L433.84-21.2 433.14-21.35 433.14-21.85 441.64-24.75 442.14-24.25 442.59-22.7Q444.24-23.7 446.27-24.25 448.29-24.8 450.44-24.8L450.44-24.8Q454.74-24.8 457.27-21.53 459.79-18.25 459.79-12.15L459.79-12.15Q459.79-6.15 457.02-2.7 454.24 0.75 449.19 0.75L449.19 0.75Q445.24 0.75 442.54-0.4L442.54-0.4 442.54 8.25Q442.54 10.25 444.34 10.75L444.34 10.75 445.29 11 445.29 11.5ZM446.79-0.7L446.79-0.7Q449.29-0.7 450.77-3.3 452.24-5.9 452.24-11.95L452.24-11.95Q452.24-18 450.84-20.43 449.44-22.85 446.79-22.85L446.79-22.85Q444.94-22.85 442.69-21.65L442.69-21.65 442.69-1.5Q444.59-0.7 446.79-0.7ZM517.74 0.75L517.74 0.75Q514.84 0.75 512.86-0.9 510.89-2.55 510.89-5.65L510.89-5.65Q510.89-8 513.29-9.98 515.69-11.95 520.84-12.95L520.84-12.95Q521.64-13.1 522.64-13.28 523.64-13.45 524.74-13.65L524.74-13.65 524.74-17.6Q524.74-21 523.91-22.38 523.09-23.75 521.34-23.75L521.34-23.75Q520.14-23.75 519.44-22.98 518.74-22.2 518.54-20.3L518.54-20.3 518.44-19.75Q518.34-17.6 517.39-16.6 516.44-15.6 515.04-15.6L515.04-15.6Q513.74-15.6 512.89-16.4 512.04-17.2 512.04-18.55L512.04-18.55Q512.04-20.6 513.46-22 514.89-23.4 517.24-24.1 519.59-24.8 522.34-24.8L522.34-24.8Q526.79-24.8 529.21-22.63 531.64-20.45 531.64-15.55L531.64-15.55 531.64-4.5Q531.64-2.25 533.74-2.25L533.74-2.25 534.84-2.25 535.29-1.85Q534.34-0.65 533.21 0 532.09 0.65 530.04 0.65L530.04 0.65Q527.84 0.65 526.56-0.38 525.29-1.4 524.89-3.1L524.89-3.1Q523.39-1.5 521.81-0.38 520.24 0.75 517.74 0.75ZM520.79-2.3L520.79-2.3Q521.79-2.3 522.66-2.78 523.54-3.25 524.74-4.25L524.74-4.25 524.74-12.65Q524.24-12.55 523.74-12.45 523.24-12.35 522.59-12.25L522.59-12.25Q520.29-11.65 518.91-10.23 517.54-8.8 517.54-6.4L517.54-6.4Q517.54-4.35 518.49-3.33 519.44-2.3 520.79-2.3ZM597.68 0L584.73 0 584.73-0.5 585.48-0.7Q586.48-1 586.85-1.6 587.23-2.2 587.23-3.15L587.23-3.15 587.23-18.8Q587.23-19.9 586.85-20.43 586.48-20.95 585.48-21.15L585.48-21.15 584.73-21.35 584.73-21.85 593.33-24.75 593.83-24.25 594.28-19.95 594.28-19.55Q594.98-20.95 596.1-22.13 597.23-23.3 598.6-24.05 599.98-24.8 601.33-24.8L601.33-24.8Q603.23-24.8 604.23-23.75 605.23-22.7 605.23-21.1L605.23-21.1Q605.23-19.4 604.25-18.48 603.28-17.55 601.93-17.55L601.93-17.55Q599.83-17.55 598.23-19.65L598.23-19.65 598.13-19.75Q597.63-20.45 596.98-20.53 596.33-20.6 595.78-19.9L595.78-19.9Q595.28-19.45 594.95-18.82 594.63-18.2 594.33-17.4L594.33-17.4 594.33-3.45Q594.33-1.45 596.08-0.95L596.08-0.95 597.68-0.5 597.68 0ZM667.72-24.8L667.72-24.8Q670.97-24.8 673.27-23.48 675.57-22.15 676.79-19.88 678.02-17.6 678.02-14.7L678.02-14.7Q678.02-14.15 677.97-13.58 677.92-13 677.77-12.55L677.77-12.55 662.87-12.55Q662.92-7.15 664.79-4.78 666.67-2.4 670.37-2.4L670.37-2.4Q672.87-2.4 674.42-3.2 675.97-4 677.32-5.55L677.32-5.55 677.82-5.1Q676.27-2.35 673.69-0.8 671.12 0.75 667.52 0.75L667.52 0.75Q663.97 0.75 661.22-0.78 658.47-2.3 656.92-5.15 655.37-8 655.37-11.95L655.37-11.95Q655.37-16.05 657.17-18.93 658.97-21.8 661.79-23.3 664.62-24.8 667.72-24.8ZM667.57-23.8L667.57-23.8Q666.12-23.8 665.09-22.93 664.07-22.05 663.49-19.83 662.92-17.6 662.87-13.55L662.87-13.55 671.42-13.55Q671.92-19 671.02-21.4 670.12-23.8 667.57-23.8ZM739.51 0.75L739.51 0.75Q736.56 0.75 734.21-0.58 731.86-1.9 730.48-4.67 729.11-7.45 729.11-11.8L729.11-11.8Q729.11-16.2 730.66-19.07 732.21-21.95 734.76-23.38 737.31-24.8 740.31-24.8L740.31-24.8Q742.06-24.8 743.66-24.45 745.26-24.1 746.51-23.4L746.51-23.4 746.51-29.9Q746.51-30.95 746.18-31.45 745.86-31.95 744.81-32.15L744.81-32.15 743.86-32.35 743.86-32.85 752.96-35.05 753.51-34.6 753.31-27.6 753.31-3.15Q753.31-2.15 753.66-1.53 754.01-0.9 754.96-0.65L754.96-0.65 755.41-0.5 755.41 0 746.86 0.55 746.41-1.25Q745.06-0.35 743.33 0.2 741.61 0.75 739.51 0.75ZM742.41-1.1L742.41-1.1Q744.51-1.1 746.26-2.35L746.26-2.35 746.26-22.2Q744.41-23.4 742.46-23.4L742.46-23.4Q740.06-23.4 738.36-20.63 736.66-17.85 736.66-11.9L736.66-11.9Q736.66-5.95 738.26-3.53 739.86-1.1 742.41-1.1ZM872.64-33.6L872.64-33.6Q874.49-33.6 875.54-32.43 876.59-31.25 876.59-29.35L876.59-29.35Q876.59-27.8 875.79-24.53 874.99-21.25 874.14-17.3L874.14-17.3 873.09-12.05 872.14-12.05 871.09-17.3Q870.29-21.15 869.49-24.43 868.69-27.7 868.69-29.35L868.69-29.35Q868.69-31.25 869.74-32.43 870.79-33.6 872.64-33.6ZM872.64 0.75L872.64 0.75Q870.79 0.75 869.54-0.5 868.29-1.75 868.29-3.55L868.29-3.55Q868.29-5.3 869.54-6.58 870.79-7.85 872.64-7.85L872.64-7.85Q874.44-7.85 875.69-6.58 876.94-5.3 876.94-3.55L876.94-3.55Q876.94-1.75 875.69-0.5 874.44 0.75 872.64 0.75Z" opacity="1" transform="matrix(1,0,0,1,0,0)" fill="#96a2fb" class="undefined-text-1" data-fill-palette-color="secondary" id="text-1"></path></svg></g></svg></g></svg></g></svg></g></svg></g></svg></g></svg></g></svg></g><defs></defs></svg><rect width="395.52" height="247.2" fill="none" stroke="none" visibility="hidden"></rect></g></svg></g></svg>